<?xml version="1.0" encoding="utf-8"?>
<!-- Generator: Adobe Illustrator 25.0.0, SVG Export Plug-In . SVG Version: 6.00 Build 0)  -->
<svg version="1.1" id="RESULT" xmlns="http://www.w3.org/2000/svg" xmlns:xlink="http://www.w3.org/1999/xlink" x="0px" y="0px"
	 viewBox="0 0 1356.8 266.3" style="enable-background:new 0 0 1356.8 266.3;" xml:space="preserve">
<style type="text/css">
	.st0{fill:#FFFFFF;}
</style>
<path id="akeliui" class="st0" d="M1327,59.8c-7,0-12.6-0.7-16.9-2c-4.3-1.3-7.3-3.7-9-7.1c-1.5-2.8-2.5-5.9-3-9
	c-0.4-3.9-0.6-7.8-0.5-11.7c-0.1-3.9,0.1-7.8,0.5-11.7c0.5-3.1,1.5-6,3-8.8c1.7-3.3,4.7-5.6,9-6.9c4.3-1.3,10.1-2,17.2-2
	c7,0,12.6,0.7,16.9,2c4.3,1.3,7.3,3.7,9,7.1c1.5,2.8,2.5,5.9,3,9c0.4,3.9,0.6,7.8,0.5,11.7c0.1,3.9-0.1,7.8-0.5,11.7
	c-0.5,3.1-1.5,6.1-3,8.8c-1.7,3.3-4.7,5.6-9,6.9C1339.9,59.2,1334.2,59.8,1327,59.8z M1297.6,113.6c-0.1-3.9,0.1-7.8,0.5-11.7
	c0.5-3.1,1.5-6.1,3-8.8c1.7-3.3,4.7-5.6,9-6.9s10-2,17.2-2c4.8-0.1,9.7,0.5,14.4,1.7c3.2,0.8,6.2,2.1,8.8,4.1
	c2.1,1.9,3.6,4.3,4.4,6.9c0.9,2.5,1.5,5.1,1.7,7.8c0.1,2.2,0.2,5.4,0.2,9.6v118.3c0.1,3.9-0.1,7.8-0.5,11.7c-0.5,3.1-1.5,6.1-3,8.8
	c-1.7,3.3-4.7,5.6-9,6.9c-4.3,1.4-10.1,2-17.2,2c-7,0-12.6-0.7-16.9-2c-4.3-1.3-7.3-3.7-9-7.1c-1.5-2.8-2.5-5.7-3-8.8
	c-0.4-3.9-0.6-7.9-0.5-11.8V113.6z M1171.9,261.3c-22.8,0-41.6-8.6-56.6-25.9s-22.5-38.2-22.5-63v-59.2c-0.1-4,0.1-7.9,0.5-11.8
	c0.5-3.1,1.5-6,3-8.8c1.7-3.4,4.7-5.7,9-7.1s10-2,17.2-2c4.9-0.1,9.8,0.4,14.5,1.7c3.2,0.8,6.1,2.2,8.8,4.1c2.2,1.8,3.8,4.2,4.6,6.9
	c0.9,2.5,1.5,5.1,1.7,7.8c0.1,2.1,0.2,5.4,0.2,9.6v59.2c0,9.2,2.6,16.4,7.9,21.6c5.3,5.2,12.4,7.8,21.5,7.8c8.8,0,15.9-2.7,21.5-8.1
	s8.3-12.5,8.3-21.3v-59.9c-0.1-3.9,0.1-7.8,0.5-11.7c0.5-3.1,1.5-6,3-8.8c1.7-3.3,4.7-5.6,9-6.9s10.1-2,17.2-2c7,0,12.6,0.7,16.9,2
	s7.3,3.7,9,7.1c1.5,2.8,2.5,5.9,3,9c0.4,3.9,0.6,7.8,0.5,11.7v119.6c0.1,3.8-0.1,7.6-0.5,11.3c-0.5,3.1-1.6,6-3.2,8.6
	c-1.8,3.1-4.8,5.4-9.1,6.8s-9.9,2-16.9,2c-6.8,0-12.3-0.7-16.6-2c-4.3-1.4-7.2-3.4-8.8-6.1c-1.3-2.1-2.3-4.4-2.9-6.8
	c-0.4-2.3-0.6-4.7-0.5-7.1c-0.6,0.8-1.2,1.6-1.8,2.4c-0.8,0.9-2.5,2.6-5.1,5.1c-2.6,2.4-5.3,4.7-8.3,6.6c-3.5,2.2-7.2,4-11.2,5.2
	C1181.3,260.5,1176.6,261.3,1171.9,261.3z M1036,59.8c-7,0-12.6-0.7-16.9-2c-4.3-1.3-7.3-3.7-9-7.1c-1.5-2.8-2.5-5.9-3-9
	c-0.4-3.9-0.6-7.8-0.5-11.7c-0.1-3.9,0.1-7.8,0.5-11.7c0.5-3.1,1.5-6,3-8.8c1.7-3.3,4.7-5.6,9-6.9c4.3-1.3,10.1-2,17.2-2
	c7,0,12.6,0.7,16.9,2c4.3,1.3,7.3,3.7,9,7.1c1.5,2.8,2.5,5.9,3,9c0.4,3.9,0.6,7.8,0.5,11.7c0.1,3.9-0.1,7.8-0.5,11.7
	c-0.5,3.1-1.5,6.1-3,8.8c-1.7,3.3-4.7,5.6-9,6.9C1048.9,59.2,1043.2,59.8,1036,59.8z M1006.6,113.6c-0.1-3.9,0.1-7.8,0.5-11.7
	c0.5-3.1,1.5-6.1,3-8.8c1.7-3.3,4.7-5.6,9-6.9s10-2,17.2-2c4.8-0.1,9.7,0.5,14.4,1.7c3.2,0.8,6.2,2.1,8.8,4.1
	c2.1,1.8,3.6,4.3,4.4,6.9c0.9,2.5,1.5,5.1,1.7,7.8c0.1,2.1,0.2,5.4,0.2,9.6v118.3c0.1,3.9-0.1,7.8-0.5,11.7c-0.5,3.1-1.5,6.1-3,8.8
	c-1.7,3.3-4.7,5.6-9,6.9s-10,2-17.2,2c-7,0-12.6-0.7-16.9-2s-7.3-3.7-9-7.1c-1.5-2.8-2.5-5.7-3-8.8c-0.4-3.9-0.6-7.9-0.5-11.8V113.6
	z M896.1,29.8c-0.1-3.9,0.1-7.8,0.5-11.7c0.5-3.1,1.5-6.2,3-9c1.7-3.4,4.7-5.7,9-7.1c4.3-1.4,10.1-2,17.2-2c7,0,12.6,0.7,16.7,2.2
	c3.8,1.1,7,3.7,9,7.1c1.6,2.8,2.7,5.8,3.2,8.9c0.4,3.9,0.6,7.9,0.5,11.8v156.5c0,8.1,0.7,13.2,2,15.4s5,3.2,11.2,3.2
	c2.4-0.1,4.8,0.1,7.1,0.5c2.1,0.6,4.1,1.6,5.9,2.9c2.4,1.6,4.1,4.3,5.1,8.3c1.1,5.2,1.7,10.4,1.5,15.7c0.1,5.7-0.4,11.3-1.5,16.9
	c-1,4.3-2.7,7.3-5.1,9c-1.8,1.4-3.9,2.5-6.1,3c-2.4,0.4-4.8,0.6-7.3,0.5c-9.6,0.1-19.2-0.3-28.7-1.4c-6.9-0.8-13.7-2.6-20.1-5.2
	c-5.9-2.3-10.7-6.5-13.8-12c-3-5.4-5.4-12.3-6.9-20.6c-1.6-8.3-2.4-19-2.4-32.1L896.1,29.8z M874.1,150.1c0,14.9-3.4,25.6-10.3,32.3
	c-6.9,6.6-14.5,10-22.8,9.9h-80.1c0,6.3,3.7,11.6,11.2,15.9c7.3,4.2,15.6,6.5,24,6.4c5.8,0,11.5-0.4,17.2-1.3c4-0.6,8-1.5,11.8-2.7
	l3.7-1.4c5.4-2.5,9.9-3.7,13.5-3.7c7.2,0,13.4,5.1,18.6,15.2c2.9,6.1,4.4,11.3,4.4,15.5c0,20.1-24,30.1-72,30.1
	c-16.7,0-31.5-2.9-44.5-8.6s-23-13.3-30.2-22.6c-6.9-8.9-12.4-18.9-16-29.6c-3.5-10.2-5.2-21-5.2-31.8c0-28.4,9.2-51.1,27.5-68.1
	s41.3-25.5,68.8-25.5c10.3-0.1,20.6,1.4,30.4,4.6c9.2,3,16.9,7,23,11.8c6,4.7,11.2,10.4,15.4,16.7c3.9,5.8,7,12.1,9,18.8
	C873.2,137.9,874.1,144,874.1,150.1L874.1,150.1z M802.8,161.6c8.6,0,12.8-3.6,12.8-10.8c0.1-4.9-2.1-9.5-5.9-12.5
	c-3.9-3.1-9.6-4.7-17.1-4.7c-7.2,0-14.4,3-21.6,9c-7.2,6-10.8,12.4-10.8,19.1L802.8,161.6z M636.2,172.7l45,37.2
	c2.9,2.5,5.1,4.4,6.6,5.8c1.7,1.6,3.1,3.4,4.2,5.4c1.3,2,2,4.4,2,6.8c0,5.4-3.5,12.7-10.5,22c-7.7,9.5-14.9,14.2-21.6,14.2
	c-4.7,0-10.7-2.9-17.9-8.8l-1.3-1l-3.4-2.4c-5.2-4.3-13.2-11.8-24-22.5c-10.8-10.7-19-18.3-24.7-22.8v26c0.1,3.9-0.1,7.8-0.5,11.7
	c-0.5,3.1-1.5,6.1-3,8.8c-1.7,3.3-4.7,5.6-9,6.9s-10,2-17.2,2c-7,0-12.6-0.7-16.9-2s-7.3-3.7-9-7.1c-1.5-2.8-2.5-5.9-3-9
	c-0.4-3.9-0.6-7.8-0.5-11.7V29.8c-0.1-3.9,0.1-7.8,0.5-11.7c0.5-3.1,1.5-6.2,3-9c1.7-3.4,4.7-5.7,9-7.1s10-2,17.2-2
	c4.8-0.1,9.7,0.5,14.4,1.7c3.2,0.8,6.2,2.1,8.8,4.1c2.1,1.8,3.6,4.3,4.4,6.9c0.9,2.5,1.5,5.1,1.7,7.8c0.1,2.2,0.2,5.4,0.2,9.6v107.2
	c4.1-3.4,10.2-9.1,18.4-17.2s14.4-13.9,18.4-17.2l4.1-2.7c7.9-6.1,14.1-9.1,18.6-9.1c6.8,0,13.8,4.4,21,13.2
	c7.4,9.5,11.2,16.8,11.2,22c0,5.2-4.2,11.3-12.6,18.2L636.2,172.7z M474.9,83.8c7,0,12.6,0.7,16.9,2c4.3,1.3,7.3,3.7,9,7.1
	c1.5,2.8,2.5,5.9,3,9c0.4,3.9,0.6,7.8,0.5,11.7v118.3c0.1,3.9-0.1,7.8-0.5,11.7c-0.5,3.1-1.5,6.1-3,8.8c-1.7,3.3-4.7,5.6-9,6.9
	c-4.3,1.3-10,2-17.2,2c-10.1,0-17.3-1.5-21.5-4.6c-4.2-3-6.6-7.5-7.3-13.4c-8.3,12-21.9,17.9-40.6,17.9c-20.3,0-38.8-8.9-55.4-26.7
	c-16.7-17.8-25-38.6-25-62.5c0-23.2,8.4-43.6,25.2-61.3c16.8-17.7,35.2-26.5,55.3-26.5c7.2-0.1,14.3,1.3,21,4.1
	c6.3,2.7,10.7,5.2,13.2,7.6c2.2,2.1,4.3,4.4,6.1,6.9c0.7-6.3,3.1-11,7.3-14.2S464.3,83.8,474.9,83.8z M414.4,202.1
	c7.8,0.1,15.3-3.2,20.5-9.1c5.5-6.1,8.3-12.8,8.3-20.3c0-7.2-2.6-14-7.9-20.3c-5.3-6.3-12.4-9.5-21.5-9.5c-8.8,0-15.9,3.2-21.5,9.5
	s-8.3,13.2-8.3,20.6c0,7.4,2.9,14.1,8.8,20.1C398.4,199.1,406.3,202.3,414.4,202.1z"/>
<path id="P" class="st0" d="M308.6,91.1c0,14.7-2.9,27.9-8.8,39.7S286.4,152,277.3,159c-8.8,6.8-18.5,12.2-28.9,16.1
	c-10.1,3.7-20,6.2-29.4,6.2h-32c-5.5,0-10,4.5-10,10v60c0,5.5-4.5,10-10,10h-44c-5.5,0-10-4.5-10-10s4.5-10,10-10h12
	c5.5,0,10-4.5,10-10s-4.5-10-10-10H90c-5.5,0-10-4.5-10-10s4.5-10,10-10h55c5.5,0,10-4.5,10-10s-4.5-10-10-10h-35
	c-5.5,0-10-4.5-10-10c0-5.5,4.5-10,10-10h75c5.5,0,10-4.5,10-10c0-5.5-4.5-10-10-10H75c-5.5,0-10-4.5-10-10c0-5.5,4.5-10,10-10
	h144.4c6.8,0,13.4-2.9,19.9-7.9s9.8-12.5,9.8-22.6c0-9.7-3.3-17.1-9.8-22.1c-6.5-5.1-13.3-7.3-20.3-7.3H10c-5.5,0-10-4.5-10-10
	s4.5-10,10-10h135c5.5,0,10-4.5,10-10s-4.5-10-10-10h-45c-5.5,0-10-4.5-10-10s4.5-10,10-10h17l102.4-0.1c10,0.1,19.9,2,29.2,5.6
	c10.3,3.9,20,9.3,28.7,16.1c9.1,7,16.6,16.4,22.5,28.4C305.7,63.2,308.6,76.5,308.6,91.1z M93,241.3H54c-5.5,0-10,4.5-10,10
	s4.5,10,10,10h39c5.5,0,10-4.5,10-10S98.5,241.3,93,241.3z M34,251.3c0,5.5-4.5,10-10,10H14c-5.5,0-10-4.5-10-10s4.5-10,10-10h10
	C29.5,241.3,34,245.8,34,251.3z M80,181.3H40c-5.5,0-10-4.5-10-10c0-5.5,4.5-10,10-10h40c5.5,0,10,4.5,10,10
	C90,176.8,85.5,181.3,80,181.3z M21,141.3c-5.5,0-10-4.5-10-10c0-5.5,4.5-10,10-10h24c5.5,0,10,4.5,10,10c0,5.5-4.5,10-10,10H21z
	 M157,101.3c-5.5,0-10-4.5-10-10s4.5-10,10-10h60c5.5,0,10,4.5,10,10s-4.5,10-10,10H157z M100,101.3c-5.5,0-10-4.5-10-10
	s4.5-10,10-10h27c5.5,0,10,4.5,10,10s-4.5,10-10,10H100z M60.8,95.1c-0.3-0.6-0.4-1.2-0.6-1.9c-0.3-1.3-0.3-2.6,0-3.9
	c0.1-0.6,0.3-1.3,0.6-1.9c0.2-0.6,0.6-1.2,0.9-1.7c0.7-1.1,1.7-2,2.8-2.8c0.5-0.4,1.1-0.7,1.7-0.9c0.6-0.3,1.2-0.4,1.9-0.6
	c1.3-0.3,2.6-0.3,3.9,0c0.6,0.1,1.3,0.3,1.9,0.6c0.6,0.2,1.2,0.6,1.7,0.9c1.1,0.7,2,1.7,2.8,2.8c0.4,0.5,0.7,1.1,0.9,1.7
	c0.3,0.6,0.4,1.2,0.6,1.9c0.3,1.3,0.3,2.6,0,3.9c-0.1,0.6-0.3,1.3-0.6,1.9c-0.3,0.6-0.6,1.2-0.9,1.7c-0.4,0.5-0.8,1.1-1.2,1.5
	c-1.9,1.9-4.4,2.9-7.1,2.9c-0.7,0-1.3-0.1-1.9-0.2c-0.6-0.1-1.3-0.3-1.9-0.6c-0.6-0.2-1.2-0.6-1.7-0.9c-1.1-0.7-2-1.7-2.8-2.8
	C61.3,96.3,61,95.7,60.8,95.1z M30,11.3c0-5.5,4.5-10,10-10h30c5.5,0,10,4.5,10,10s-4.5,10-10,10H40C34.5,21.3,30,16.8,30,11.3z"/>
</svg>
