<svg id="RESULT" xmlns="http://www.w3.org/2000/svg" viewBox="0 0 1356.76 266.34"><path id="akeliui" d="M1398,129.54q-10.49,0-16.9-2t-9-7.1a29,29,0,0,1-3-9,97.69,97.69,0,0,1-.51-11.67,97.73,97.73,0,0,1,.51-11.66,27.31,27.31,0,0,1,3-8.78q2.53-4.91,9-6.93t17.24-2q10.47,0,16.9,2t9,7.09a29.06,29.06,0,0,1,3,9,98.08,98.08,0,0,1,.5,11.66,97.85,97.85,0,0,1-.5,11.66,27.2,27.2,0,0,1-3,8.79q-2.54,4.9-9,6.93T1398,129.54Zm-29.41,53.74a97.61,97.61,0,0,1,.51-11.66,27.36,27.36,0,0,1,3-8.79c1.69-3.26,4.68-5.58,9-6.93s10-2,17.24-2a53.11,53.11,0,0,1,14.36,1.69,24.9,24.9,0,0,1,8.79,4.06,14.86,14.86,0,0,1,4.4,6.93,30.88,30.88,0,0,1,1.69,7.77q.17,3.23.16,9.64v118.3a98.08,98.08,0,0,1-.5,11.66,27.36,27.36,0,0,1-3,8.79q-2.54,4.89-9,6.92t-17.24,2q-10.49,0-16.9-2t-9-7.09a29.24,29.24,0,0,1-3-8.79,97,97,0,0,1-.51-11.83ZM1242.88,331q-34.14,0-56.61-25.86t-22.48-63V182.94a97,97,0,0,1,.51-11.83,29.33,29.33,0,0,1,3-8.79q2.54-5.07,9-7.09t17.23-2a52.46,52.46,0,0,1,14.54,1.69,27,27,0,0,1,8.79,4.05,14.19,14.19,0,0,1,4.56,6.93,31,31,0,0,1,1.69,7.78q.17,3.21.17,9.63v59.15q0,13.86,7.94,21.63t21.46,7.78q13.18,0,21.47-8.12t8.28-21.29V182.6a97.73,97.73,0,0,1,.51-11.66,27.07,27.07,0,0,1,3-8.78q2.54-4.91,9-6.93t17.24-2q10.47,0,16.9,2t9,7.09a29.06,29.06,0,0,1,3,9,97.61,97.61,0,0,1,.51,11.66V302.59a93.85,93.85,0,0,1-.51,11.33,24.17,24.17,0,0,1-3.21,8.62q-2.71,4.72-9.13,6.76t-16.9,2q-10.14,0-16.56-2c-4.28-1.36-7.21-3.38-8.79-6.09a22.67,22.67,0,0,1-2.87-6.76,39.67,39.67,0,0,1-.51-7.1,24,24,0,0,1-1.85,2.37q-1.2,1.35-5.07,5.07a57.5,57.5,0,0,1-8.29,6.59,51,51,0,0,1-11.15,5.24A41.63,41.63,0,0,1,1242.88,331ZM1107,129.54q-10.48,0-16.9-2t-9-7.1a29,29,0,0,1-3-9,97.69,97.69,0,0,1-.51-11.67,97.73,97.73,0,0,1,.51-11.66,27.31,27.31,0,0,1,3-8.78q2.53-4.91,9-6.93t17.24-2q10.47,0,16.9,2t9,7.09a29.33,29.33,0,0,1,3,9,100.3,100.3,0,0,1,.5,11.66,100.06,100.06,0,0,1-.5,11.66,27.44,27.44,0,0,1-3,8.79q-2.55,4.9-9,6.93T1107,129.54Zm-29.41,53.74a97.61,97.61,0,0,1,.51-11.66,27.36,27.36,0,0,1,3-8.79c1.69-3.26,4.68-5.58,9-6.93s10-2,17.24-2a53.11,53.11,0,0,1,14.36,1.69,24.9,24.9,0,0,1,8.79,4.06,14.77,14.77,0,0,1,4.39,6.93,30,30,0,0,1,1.69,7.77c.12,2.15.17,5.36.17,9.64v118.3a100.3,100.3,0,0,1-.5,11.66,27.61,27.61,0,0,1-3,8.79q-2.55,4.89-9,6.92t-17.24,2q-10.48,0-16.9-2t-9-7.09a29.24,29.24,0,0,1-3-8.79,97,97,0,0,1-.51-11.83ZM967.08,99.46a97.92,97.92,0,0,1,.51-11.67,28.84,28.84,0,0,1,3-9q2.54-5.07,9-7.1t17.23-2q10.48,0,16.73,2.2a15.62,15.62,0,0,1,9,7.1,25.56,25.56,0,0,1,3.21,8.95,102.33,102.33,0,0,1,.51,11.83v156.5q0,12.16,2,15.38t11.15,3.21a37.5,37.5,0,0,1,7.1.5,18.51,18.51,0,0,1,5.91,2.88q3.55,2.37,5.07,8.28a65,65,0,0,1,1.53,15.72,75.46,75.46,0,0,1-1.53,16.9q-1.52,6.42-5.07,8.95a16.89,16.89,0,0,1-6.08,3.05,40.33,40.33,0,0,1-7.27.5,242.53,242.53,0,0,1-28.73-1.35,76.49,76.49,0,0,1-20.11-5.24,27.42,27.42,0,0,1-13.85-12q-4.57-8.11-6.93-20.62t-2.37-32.11Zm-22,120.32q0,22.32-10.31,32.28T912,262H831.88q0,9.47,11.15,15.89a47.33,47.33,0,0,0,24,6.42A105,105,0,0,0,884.27,283a73.06,73.06,0,0,0,11.83-2.7l3.72-1.36q8.11-3.71,13.52-3.71,10.81,0,18.59,15.21,4.38,9.12,4.39,15.54,0,30.09-72,30.09-25,0-44.45-8.62t-30.25-22.65a101.25,101.25,0,0,1-16-29.57,98.72,98.72,0,0,1-5.24-31.78q0-42.58,27.54-68.1t68.79-25.52a97,97,0,0,1,30.42,4.56q13.85,4.56,23,11.83a72.55,72.55,0,0,1,15.38,16.73,69.61,69.61,0,0,1,9,18.76A64.73,64.73,0,0,1,945.11,219.78Zm-71.32,11.5q12.84,0,12.85-10.82A15.26,15.26,0,0,0,880.72,208q-5.91-4.72-17.07-4.73-10.81,0-21.63,9t-10.82,19.1ZM707.16,242.43l45,37.18q4.39,3.72,6.59,5.75a24.16,24.16,0,0,1,4.23,5.4,13.09,13.09,0,0,1,2,6.76q0,8.12-10.48,22-11.49,14.2-21.63,14.2-7.1,0-17.92-8.79l-1.35-1-3.38-2.37q-7.77-6.42-24-22.48t-24.67-22.81v26a97.61,97.61,0,0,1-.51,11.66,27.36,27.36,0,0,1-3,8.79q-2.54,4.89-9,6.92t-17.23,2q-10.49,0-16.9-2t-9-7.09a28.8,28.8,0,0,1-3-9,97.61,97.61,0,0,1-.51-11.66V99.46a97.92,97.92,0,0,1,.51-11.67,28.84,28.84,0,0,1,3-9q2.54-5.07,9-7.1t17.23-2a53.24,53.24,0,0,1,14.37,1.69,24.73,24.73,0,0,1,8.79,4.06,14.77,14.77,0,0,1,4.39,6.93,30.88,30.88,0,0,1,1.69,7.77q.17,3.23.17,9.63V206.94q6.08-5.07,18.42-17.24t18.42-17.24l4.06-2.7q11.82-9.12,18.59-9.13,10.14,0,21,13.19,11.16,14.19,11.16,22T740.62,214ZM545.94,153.54q10.47,0,16.9,2t8.95,7.1a28.8,28.8,0,0,1,3,9,97.61,97.61,0,0,1,.51,11.66v118.3a97.5,97.5,0,0,1-.51,11.66,27,27,0,0,1-3,8.79q-2.53,4.91-8.95,6.93t-17.24,2q-15.21,0-21.47-4.57t-7.26-13.35Q504.36,331,476.31,331q-30.42,0-55.43-26.71t-25-62.53q0-34.8,25.18-61.34t55.27-26.54a52.71,52.71,0,0,1,20.95,4.06q9.47,4,13.19,7.61a47.43,47.43,0,0,1,6.08,6.92c.68-6.3,3.09-11,7.27-14.19S535.34,153.54,545.94,153.54Zm-60.51,118.3a26.53,26.53,0,0,0,20.45-9.13q8.28-9.12,8.28-20.28,0-10.81-7.94-20.28t-21.46-9.46q-13.18,0-21.47,9.46T455,242.77q0,11.14,8.79,20.11A29.13,29.13,0,0,0,485.43,271.84Z" transform="translate(-71 -69.71)"/><path id="P" d="M379.58,160.82q0,22-8.79,39.71t-22.47,28.22a109.41,109.41,0,0,1-28.9,16.06c-10.14,3.72-20,6.19-29.42,6.19H258a10,10,0,0,0-10,10v60a10,10,0,0,1-10,10H194a10,10,0,0,1,0-20h12a10,10,0,0,0,0-20H161a10,10,0,0,1,0-20h55a10,10,0,0,0,0-20H181a10,10,0,0,1,0-20h75a10,10,0,0,0,0-20H146a10,10,0,0,1,0-20H290.35c6.76,0,13.4-2.92,19.94-7.88s9.8-12.5,9.8-22.64q0-14.53-9.8-22.14C303.75,133.27,297,131,290,131H81a10,10,0,0,1,0-20H216a10,10,0,0,0,0-20H171a10,10,0,0,1,0-20h17l102.35-.09a83.76,83.76,0,0,1,29.23,5.58,110.24,110.24,0,0,1,28.74,16.05Q362,103,370.79,120.93T379.58,160.82ZM164,311H125a10,10,0,0,0,0,20h39a10,10,0,0,0,0-20Zm-59,10a10,10,0,0,1-10,10H85a10,10,0,0,1,0-20H95A10,10,0,0,1,105,321Zm46-70H111a10,10,0,0,1,0-20h40a10,10,0,0,1,0,20ZM92,211a10,10,0,0,1,0-20h24a10,10,0,0,1,0,20Zm136-40a10,10,0,0,1,0-20h60a10,10,0,0,1,0,20Zm-57,0a10,10,0,0,1,0-20h27a10,10,0,0,1,0,20Zm-39.23-6.17a9.69,9.69,0,0,1-.57-1.88,9.61,9.61,0,0,1,0-3.9,9.39,9.39,0,0,1,.57-1.87,9.87,9.87,0,0,1,.92-1.73,9.72,9.72,0,0,1,2.76-2.76,9.87,9.87,0,0,1,1.73-.92,9.39,9.39,0,0,1,1.87-.57,9.85,9.85,0,0,1,3.9,0,9.39,9.39,0,0,1,1.87.57,9.87,9.87,0,0,1,1.73.92,9.72,9.72,0,0,1,2.76,2.76,9.87,9.87,0,0,1,.92,1.73,9.39,9.39,0,0,1,.57,1.87,9.61,9.61,0,0,1,0,3.9,9.69,9.69,0,0,1-.57,1.88,10.15,10.15,0,0,1-.92,1.72,9.57,9.57,0,0,1-1.24,1.52A10.08,10.08,0,0,1,141,171a9.85,9.85,0,0,1-1.95-.2,9.39,9.39,0,0,1-1.87-.57,9.87,9.87,0,0,1-1.73-.92,9.72,9.72,0,0,1-2.76-2.76A10.15,10.15,0,0,1,131.77,164.83ZM101,81a10,10,0,0,1,10-10h30a10,10,0,0,1,0,20H111A10,10,0,0,1,101,81Z" transform="translate(-71 -69.71)"/></svg>